<svg height="60" viewBox="0 0 235 60" width="235" xmlns="http://www.w3.org/2000/svg" xmlns:xlink="http://www.w3.org/1999/xlink"><linearGradient id="a" x1="50%" x2="50%" y1="-14.583939%" y2="24.327613%"><stop offset="0" stop-color="#008684" stop-opacity="0"/><stop offset="1" stop-color="#008684"/></linearGradient><g fill="none" fill-rule="evenodd"><g transform=""><path d="m0 20.8035789 5.26315789 2.6188422v18.0869473l24.57515791 12.2282105 24.5752631-12.2282105v-18.0869473l5.2631579-2.6188422v23.9428422l-29.8383157 14.8470526s-19.89231584-9.898-29.8384211-14.8470526z" fill="url(#a)"/><path d="m29.8384211 29.8384211-29.8384211-14.9192632v-14.9191579l29.8384211 14.9191579 29.8383157-14.9191579v14.9191579z" fill="#00c474"/></g><g fill="#008684" transform="translate(75 21)"><path d="m13.1615789 23.7993684h-1.1295789l-11.59568421-23.21747366h5.54431579c2.20536842 4.40063158 4.41084212 8.80136842 6.61621052 13.20199996l6.6162105-13.20199996h5.5533685z"/><path d="m26.5136842 24.1484211h4.9587369v-23.56652636h-4.9587369z"/><path d="m40.0805263 24.1163158h-4.9589474v-22.93505264l1.0536843-.46926316 13.7936842 12.4202105v-12.58242103h4.9915789v22.96715793c-.3515789.1566315-.7031579.3131579-1.0536842.4697894l-13.8263158-12.4228421z"/><path d="m70.1973684.58210526c3.0494737.02652632 6.0273684 1.28473685 8.1936842 3.41210527l.4557895.50052631-3.4863158 3.52410527c-2.1473684-2.13894737-5.4010526-3.12705264-8.188421-1.7791579-3.1936842 1.54442105-4.8978948 5.74894739-3.1336842 9.18336839 1.7736842 3.4532632 6.8315789 5.1598948 10.4231578 2.1725263.1463158-.1221052.2884211-.2498947.4263158-.3816842l.4768421-.4611579 3.471579 3.4628421-.3957895.4710527c-4.6315789 4.6071579-13.1978947 4.7801052-17.7673684-1.2724211-3.1389474-4.1582105-3.0757895-10.46599997.4389474-14.62199997 2.1926315-2.59263158 5.4936842-4.17936842 8.9336842-4.21010527.0505263-.00010526.1010526-.00010526.1515789 0z"/><path d="m91.7252632 24.2174737h-1.129579l-11.5956842-23.2174737h5.5443158c2.2053684 4.40063158 4.4108421 8.80136842 6.6162105 13.202l6.6162105-13.202h5.5533682z" transform="matrix(-1 0 0 -1 182.330106 25.217474)"/><path d="m109.206842 24.1484211h-4.958947v-23.56652636c3.945263 0 7.889473-.01 11.834737.00010526 3.250526.02747368 6.393684 2.176 7.532631 5.29126316 1.312632 3.59252631-.316842 8.07884214-3.861052 9.92589474 0 0 4.813684 8.3492632 4.813684 8.3492632h-5.750527l-4.306315-7.4237895h-5.304211zm0-18.57557899v6.13147369c2.288421.0097895 4.576842.0427368 6.864211.0291579 1.955789-.0334737 3.572631-2.27778949 2.827368-4.1914737-.442105-1.13631579-1.576842-1.94757895-2.827368-1.96894737-2.287369-.01273684-4.57579-.00021052-6.864211-.00021052z"/><path d="m127.736316 24.1484211h4.958737v-23.56652636h-4.958737z"/><path d="m148.202632.58210526c6.72421.05536842 12.850526 6.48157895 11.561052 13.92821054-1.052631 6.0782105-7.445263 10.6727368-13.983158 9.422-7.661052-1.4657895-13.263158-11.9370526-6.390526-19.45221054 2.169474-2.37157894 5.221053-3.83273684 8.509474-3.89631579.101052-.00147368.202105-.002.303158-.00168421zm-.12 4.99084211c-4.171579.03368421-8.072632 4.42147368-6.344211 9.17147373 1.234737 3.3901052 5.501053 5.4614736 9.132632 3.8591578 4.166315-1.838 5.875789-8.5334736 1.026315-11.88789469-1.107368-.76589474-2.455789-1.14673684-3.814736-1.14273684z"/></g></g></svg>